<?xml version="1.0" encoding="UTF-8" standalone="no"?>
<!-- Created with Inkscape (http://www.inkscape.org/) -->

<svg
   xmlns:dc="http://purl.org/dc/elements/1.1/"
   xmlns:cc="http://creativecommons.org/ns#"
   xmlns:rdf="http://www.w3.org/1999/02/22-rdf-syntax-ns#"
   xmlns:svg="http://www.w3.org/2000/svg"
   xmlns="http://www.w3.org/2000/svg"
   xmlns:sodipodi="http://sodipodi.sourceforge.net/DTD/sodipodi-0.dtd"
   xmlns:inkscape="http://www.inkscape.org/namespaces/inkscape"
   width="193.45834mm"
   height="81.12529mm"
   viewBox="0 0 685.48232 287.45182"
   id="svg4247"
   version="1.1"
   inkscape:version="0.91 r13725"
   sodipodi:docname="logo_onn.svg">
  <defs
     id="defs4249" />
  <sodipodi:namedview
     id="base"
     pagecolor="#ffffff"
     bordercolor="#666666"
     borderopacity="1.0"
     inkscape:pageopacity="0.0"
     inkscape:pageshadow="2"
     inkscape:zoom="0.49497475"
     inkscape:cx="-368.06126"
     inkscape:cy="-67.950438"
     inkscape:document-units="px"
     inkscape:current-layer="layer2"
     showgrid="false"
     inkscape:window-width="3098"
     inkscape:window-height="1752"
     inkscape:window-x="102"
     inkscape:window-y="48"
     inkscape:window-maximized="1"
     fit-margin-top="0"
     fit-margin-left="0"
     fit-margin-right="0"
     fit-margin-bottom="0" />
  <metadata
     id="metadata4252">
    <rdf:RDF>
      <cc:Work
         rdf:about="">
        <dc:format>image/svg+xml</dc:format>
        <dc:type
           rdf:resource="http://purl.org/dc/dcmitype/StillImage" />
        <dc:title></dc:title>
      </cc:Work>
    </rdf:RDF>
  </metadata>
  <g
     inkscape:groupmode="layer"
     id="layer2"
     inkscape:label="Ebene 2"
     style="display:inline"
     transform="translate(-17.742557,-6.9273403)">
    <path
       sodipodi:nodetypes="ccccccccccccccccccccccccccccccccccsssssssssssssccccssscccccccssscccccccccssscccccccsssccccc"
       inkscape:connector-curvature="0"
       id="path4224"
       d="m 17.742557,150.65324 0,-143.7258997 27.13706,0 27.137059,0 0,11.0558387 0,11.055839 -15.076144,0 -15.076139,0 0,121.614222 0,121.61422 15.076139,0 15.076144,0 0,11.05585 0,11.05584 -27.137059,0 -27.13706,0 z m 631.208213,132.67007 0,-11.05585 16.08122,0 16.08121,0 0,-121.61422 0,-121.614222 -16.08121,0 -16.08122,0 0,-11.055839 0,-11.0558387 27.13706,0 27.13705,0 0,143.7258997 0,143.72591 -27.13705,0 -27.13706,0 z M 187.92326,232.03406 c -23.68979,-4.14051 -45.31499,-21.77376 -53.7013,-43.78775 -9.31465,-24.45089 -6.91806,-61.39649 5.33942,-82.31233 16.07745,-27.434165 46.7458,-40.58217 78.98163,-33.860823 39.68504,8.274592 60.32303,39.491663 58.19999,88.033223 -0.72188,16.50537 -1.71964,20.89434 -7.34986,32.3309 -14.68376,29.82705 -47.13322,45.5983 -81.46988,39.59678 z M 227.39701,211.43 c 12.07209,-5.07745 24.17657,-18.57301 28.96298,-32.29189 8.02847,-23.01123 2.80573,-56.8049 -11.45011,-74.0882 -18.84202,-22.843171 -59.46992,-24.447474 -80.72982,-3.18749 -23.80058,23.8006 -24.80397,74.14587 -1.96759,98.72603 14.93093,16.07116 42.03297,20.57872 65.18454,10.84155 z m 77.81768,-59.77168 0,-78.395957 9.54822,0.03016 9.54822,0.03016 41.10315,64.295537 c 22.60675,35.3624 41.82883,64.29553 42.71575,64.29553 0.88692,0 1.61259,-28.94619 1.61259,-64.32488 l 0,-64.324884 8.0406,0 8.04061,0 0,78.500874 0,78.50108 -10.51985,-0.60766 -10.51985,-0.60747 -40.23556,-62.81727 c -22.12954,-34.54949 -40.9144,-62.81726 -41.7441,-62.81726 -0.82972,0 -1.50857,28.49391 -1.50857,63.3198 l 0,63.31981 -8.04061,0 -8.0406,0 0,-78.39595 z m 156.79189,0 0,-78.395957 9.54823,0.03016 9.54822,0.03016 41.10315,64.295537 c 22.60675,35.3624 41.82883,64.29553 42.71575,64.29553 0.88691,0 1.61259,-28.94619 1.61259,-64.32488 l 0,-64.324884 8.0406,0 8.04061,0 0,78.500874 0,78.50108 -10.51985,-0.60766 -10.51985,-0.60747 -40.23556,-62.81727 c -22.12954,-34.5495 -40.9144,-62.81728 -41.74411,-62.81728 -0.82972,0 -1.50856,28.49392 -1.50856,63.3198 l 0,63.31982 -8.04062,0 -8.0406,0 0,-78.39596 z"
       style="fill:#393939;fill-opacity:1" />
  </g>
</svg>
